<mxGraphModel dx="852" dy="494" grid="1" gridSize="10" guides="1" tooltips="1" connect="1" arrows="1" fold="1" page="1" pageScale="1" pageWidth="827" pageHeight="1169" math="0" shadow="0">
  <root>
    <mxCell id="0" />
    <mxCell id="1" parent="0" />
    <mxCell id="4" value="" style="edgeStyle=orthogonalEdgeStyle;rounded=0;orthogonalLoop=1;jettySize=auto;html=1;" parent="1" source="2" target="3" edge="1">
      <mxGeometry relative="1" as="geometry" />
    </mxCell>
    <mxCell id="2" value="Запуск" style="ellipse;whiteSpace=wrap;html=1;" parent="1" vertex="1">
      <mxGeometry x="354" y="20" width="120" height="40" as="geometry" />
    </mxCell>
    <mxCell id="39" value="" style="edgeStyle=orthogonalEdgeStyle;rounded=0;orthogonalLoop=1;jettySize=auto;html=1;" parent="1" source="3" target="38" edge="1">
      <mxGeometry relative="1" as="geometry" />
    </mxCell>
    <mxCell id="3" value="&lt;div style=&quot;font-family: &amp;#34;consolas&amp;#34; , &amp;#34;courier new&amp;#34; , monospace ; font-size: 14px ; line-height: 19px&quot;&gt;&lt;span style=&quot;background-color: rgb(255 , 255 , 255)&quot;&gt;int n,k,s=0;&lt;/span&gt;&lt;/div&gt;" style="rounded=0;whiteSpace=wrap;html=1;" parent="1" vertex="1">
      <mxGeometry x="354" y="140" width="120" height="60" as="geometry" />
    </mxCell>
    <mxCell id="5" value="" style="strokeWidth=2;html=1;shape=mxgraph.flowchart.annotation_2;align=left;labelPosition=right;pointerEvents=1;" parent="1" vertex="1">
      <mxGeometry x="530" y="40" width="50" height="100" as="geometry" />
    </mxCell>
    <mxCell id="7" value="" style="endArrow=none;dashed=1;html=1;entryX=0;entryY=0.5;entryDx=0;entryDy=0;entryPerimeter=0;" parent="1" target="5" edge="1">
      <mxGeometry width="50" height="50" relative="1" as="geometry">
        <mxPoint x="420" y="90" as="sourcePoint" />
        <mxPoint x="440" y="380" as="targetPoint" />
        <Array as="points">
          <mxPoint x="450" y="90" />
        </Array>
      </mxGeometry>
    </mxCell>
    <mxCell id="8" value="&lt;div style=&quot;font-family: consolas, &amp;quot;courier new&amp;quot;, monospace; font-size: 14px; line-height: 19px;&quot;&gt;&lt;div&gt;&lt;span style=&quot;&quot;&gt;#include&lt;/span&gt;&lt;span style=&quot;&quot;&gt; &lt;/span&gt;&lt;span style=&quot;&quot;&gt;&amp;lt;iostream&amp;gt;&lt;/span&gt;&lt;/div&gt;&lt;div&gt;&lt;span style=&quot;&quot;&gt;using&lt;/span&gt; &lt;span style=&quot;&quot;&gt;namespace&lt;/span&gt; &lt;span style=&quot;&quot;&gt;std&lt;/span&gt;;&lt;/div&gt;&lt;div&gt;&lt;span style=&quot;&quot;&gt;int&lt;/span&gt; &lt;span style=&quot;&quot;&gt;main&lt;/span&gt;()&lt;/div&gt;&lt;div&gt;{&lt;/div&gt;&lt;/div&gt;" style="text;html=1;align=center;verticalAlign=middle;resizable=0;points=[];autosize=1;strokeColor=none;labelBackgroundColor=#ffffff;" parent="1" vertex="1">
      <mxGeometry x="560" y="50" width="170" height="80" as="geometry" />
    </mxCell>
    <mxCell id="12" value="" style="edgeStyle=orthogonalEdgeStyle;rounded=0;orthogonalLoop=1;jettySize=auto;html=1;" parent="1" edge="1">
      <mxGeometry relative="1" as="geometry">
        <mxPoint x="414" y="310" as="sourcePoint" />
        <mxPoint x="414" y="340" as="targetPoint" />
      </mxGeometry>
    </mxCell>
    <mxCell id="17" value="" style="edgeStyle=orthogonalEdgeStyle;rounded=0;orthogonalLoop=1;jettySize=auto;html=1;" parent="1" target="16" edge="1">
      <mxGeometry relative="1" as="geometry">
        <mxPoint x="414" y="400" as="sourcePoint" />
      </mxGeometry>
    </mxCell>
    <mxCell id="19" value="" style="edgeStyle=orthogonalEdgeStyle;rounded=0;orthogonalLoop=1;jettySize=auto;html=1;" parent="1" source="16" target="18" edge="1">
      <mxGeometry relative="1" as="geometry" />
    </mxCell>
    <mxCell id="43" style="edgeStyle=orthogonalEdgeStyle;rounded=0;orthogonalLoop=1;jettySize=auto;html=1;entryX=0;entryY=0.5;entryDx=0;entryDy=0;" parent="1" source="16" target="30" edge="1">
      <mxGeometry relative="1" as="geometry">
        <mxPoint x="190" y="990" as="targetPoint" />
        <Array as="points">
          <mxPoint x="200" y="480" />
          <mxPoint x="200" y="985" />
        </Array>
      </mxGeometry>
    </mxCell>
    <mxCell id="16" value="&lt;span style=&quot;font-family: consolas, &amp;quot;courier new&amp;quot;, monospace; font-size: 14px;&quot;&gt;for&lt;/span&gt;&lt;span style=&quot;font-family: consolas, &amp;quot;courier new&amp;quot;, monospace; font-size: 14px;&quot;&gt;&amp;nbsp;(&lt;/span&gt;&lt;span style=&quot;font-family: consolas, &amp;quot;courier new&amp;quot;, monospace; font-size: 14px;&quot;&gt;int&lt;/span&gt;&lt;span style=&quot;font-family: consolas, &amp;quot;courier new&amp;quot;, monospace; font-size: 14px;&quot;&gt;&amp;nbsp;&lt;/span&gt;&lt;span style=&quot;font-family: consolas, &amp;quot;courier new&amp;quot;, monospace; font-size: 14px;&quot;&gt;i&lt;/span&gt;&lt;span style=&quot;font-family: consolas, &amp;quot;courier new&amp;quot;, monospace; font-size: 14px;&quot;&gt;&amp;nbsp;=&amp;nbsp;&lt;/span&gt;&lt;span style=&quot;font-family: consolas, &amp;quot;courier new&amp;quot;, monospace; font-size: 14px;&quot;&gt;1&lt;/span&gt;&lt;span style=&quot;font-family: consolas, &amp;quot;courier new&amp;quot;, monospace; font-size: 14px;&quot;&gt;;&lt;/span&gt;&lt;br style=&quot;font-family: consolas, &amp;quot;courier new&amp;quot;, monospace; font-size: 14px;&quot;&gt;&lt;span style=&quot;font-family: consolas, &amp;quot;courier new&amp;quot;, monospace; font-size: 14px;&quot;&gt;i&lt;/span&gt;&lt;span style=&quot;font-family: consolas, &amp;quot;courier new&amp;quot;, monospace; font-size: 14px;&quot;&gt;&amp;nbsp;&amp;lt;=&amp;nbsp;&lt;/span&gt;&lt;span style=&quot;font-family: consolas, &amp;quot;courier new&amp;quot;, monospace; font-size: 14px;&quot;&gt;n&lt;/span&gt;&lt;span style=&quot;font-family: consolas, &amp;quot;courier new&amp;quot;, monospace; font-size: 14px;&quot;&gt;;&amp;nbsp;&lt;/span&gt;&lt;span style=&quot;font-family: consolas, &amp;quot;courier new&amp;quot;, monospace; font-size: 14px;&quot;&gt;i&lt;/span&gt;&lt;span style=&quot;font-family: consolas, &amp;quot;courier new&amp;quot;, monospace; font-size: 14px;&quot;&gt;++)&lt;/span&gt;" style="shape=hexagon;perimeter=hexagonPerimeter2;whiteSpace=wrap;html=1;fixedSize=1;labelBackgroundColor=#ffffff;" parent="1" vertex="1">
      <mxGeometry x="337" y="440" width="154" height="80" as="geometry" />
    </mxCell>
    <mxCell id="22" value="" style="edgeStyle=orthogonalEdgeStyle;rounded=0;orthogonalLoop=1;jettySize=auto;html=1;" parent="1" source="18" target="21" edge="1">
      <mxGeometry relative="1" as="geometry" />
    </mxCell>
    <mxCell id="18" value="&lt;div style=&quot;font-family: consolas, &amp;quot;courier new&amp;quot;, monospace; font-size: 14px; line-height: 19px;&quot;&gt;&lt;span style=&quot;&quot;&gt;k&lt;/span&gt; = &lt;span style=&quot;&quot;&gt;1&lt;/span&gt;;&lt;/div&gt;" style="rounded=0;whiteSpace=wrap;html=1;labelBackgroundColor=#FFFFFF;" parent="1" vertex="1">
      <mxGeometry x="354" y="555" width="120" height="60" as="geometry" />
    </mxCell>
    <mxCell id="24" value="" style="edgeStyle=orthogonalEdgeStyle;rounded=0;orthogonalLoop=1;jettySize=auto;html=1;" parent="1" source="21" target="23" edge="1">
      <mxGeometry relative="1" as="geometry" />
    </mxCell>
    <mxCell id="28" style="edgeStyle=orthogonalEdgeStyle;rounded=0;orthogonalLoop=1;jettySize=auto;html=1;exitX=1;exitY=0.5;exitDx=0;exitDy=0;entryX=1;entryY=0.5;entryDx=0;entryDy=0;" parent="1" source="21" target="26" edge="1">
      <mxGeometry relative="1" as="geometry">
        <Array as="points">
          <mxPoint x="489" y="700" />
          <mxPoint x="540" y="700" />
          <mxPoint x="540" y="890" />
        </Array>
      </mxGeometry>
    </mxCell>
    <mxCell id="21" value="&lt;div style=&quot;font-family: consolas, &amp;quot;courier new&amp;quot;, monospace; font-size: 14px; line-height: 19px;&quot;&gt;&lt;span style=&quot;&quot;&gt;for&lt;/span&gt; (&lt;span style=&quot;&quot;&gt;int&lt;/span&gt; &lt;span style=&quot;&quot;&gt;j&lt;/span&gt;=&lt;span style=&quot;&quot;&gt;1&lt;/span&gt;; &lt;br&gt;&lt;span style=&quot;&quot;&gt;j&lt;/span&gt; &amp;lt;= &lt;span style=&quot;&quot;&gt;2&lt;/span&gt; * &lt;span style=&quot;&quot;&gt;i&lt;/span&gt;; &lt;span style=&quot;&quot;&gt;j&lt;/span&gt;++)&lt;/div&gt;" style="shape=hexagon;perimeter=hexagonPerimeter2;whiteSpace=wrap;html=1;fixedSize=1;labelBackgroundColor=#ffffff;" parent="1" vertex="1">
      <mxGeometry x="339" y="650" width="150" height="80" as="geometry" />
    </mxCell>
    <mxCell id="25" style="edgeStyle=orthogonalEdgeStyle;rounded=0;orthogonalLoop=1;jettySize=auto;html=1;entryX=0;entryY=0.5;entryDx=0;entryDy=0;" parent="1" source="23" target="21" edge="1">
      <mxGeometry relative="1" as="geometry">
        <Array as="points">
          <mxPoint x="260" y="820" />
          <mxPoint x="260" y="700" />
        </Array>
      </mxGeometry>
    </mxCell>
    <mxCell id="23" value="&lt;div style=&quot;font-family: consolas, &amp;quot;courier new&amp;quot;, monospace; font-size: 14px; line-height: 19px;&quot;&gt;&lt;span style=&quot;&quot;&gt;k&lt;/span&gt; *= &lt;span style=&quot;&quot;&gt;j&lt;/span&gt;;&lt;/div&gt;" style="rounded=0;whiteSpace=wrap;html=1;labelBackgroundColor=#ffffff;" parent="1" vertex="1">
      <mxGeometry x="354" y="770" width="120" height="60" as="geometry" />
    </mxCell>
    <mxCell id="36" style="edgeStyle=orthogonalEdgeStyle;rounded=0;orthogonalLoop=1;jettySize=auto;html=1;entryX=1;entryY=0.5;entryDx=0;entryDy=0;" parent="1" source="26" target="16" edge="1">
      <mxGeometry relative="1" as="geometry">
        <mxPoint x="620" y="480" as="targetPoint" />
        <Array as="points">
          <mxPoint x="414" y="930" />
          <mxPoint x="580" y="930" />
          <mxPoint x="580" y="480" />
        </Array>
      </mxGeometry>
    </mxCell>
    <mxCell id="26" value="&lt;div style=&quot;font-family: consolas, &amp;quot;courier new&amp;quot;, monospace; font-size: 14px; line-height: 19px;&quot;&gt;&lt;span style=&quot;&quot;&gt;s&lt;/span&gt; += &lt;span style=&quot;&quot;&gt;k&lt;/span&gt;;&lt;/div&gt;" style="rounded=0;whiteSpace=wrap;html=1;labelBackgroundColor=#ffffff;" parent="1" vertex="1">
      <mxGeometry x="354" y="860" width="120" height="60" as="geometry" />
    </mxCell>
    <mxCell id="35" value="" style="edgeStyle=orthogonalEdgeStyle;rounded=0;orthogonalLoop=1;jettySize=auto;html=1;" parent="1" source="30" target="34" edge="1">
      <mxGeometry relative="1" as="geometry" />
    </mxCell>
    <mxCell id="30" value="&lt;div style=&quot;font-family: consolas, &amp;quot;courier new&amp;quot;, monospace; font-size: 14px; line-height: 19px;&quot;&gt;&lt;span style=&quot;&quot;&gt;cout&lt;/span&gt; &lt;span style=&quot;&quot;&gt;&amp;lt;&amp;lt;&lt;/span&gt; &lt;span style=&quot;&quot;&gt;s&lt;/span&gt; &lt;span style=&quot;&quot;&gt;&amp;lt;&amp;lt;&lt;/span&gt; &lt;span style=&quot;&quot;&gt;endl&lt;/span&gt;;&lt;/div&gt;" style="shape=parallelogram;perimeter=parallelogramPerimeter;whiteSpace=wrap;html=1;fixedSize=1;labelBackgroundColor=#ffffff;" parent="1" vertex="1">
      <mxGeometry x="331" y="950" width="166" height="70" as="geometry" />
    </mxCell>
    <mxCell id="34" value="Конец" style="ellipse;whiteSpace=wrap;html=1;" parent="1" vertex="1">
      <mxGeometry x="354" y="1080" width="120" height="40" as="geometry" />
    </mxCell>
    <mxCell id="37" value="&lt;span style=&quot;font-family: consolas, &amp;quot;courier new&amp;quot;, monospace; font-size: 14px;&quot;&gt;cin&lt;/span&gt;&lt;span style=&quot;font-family: consolas, &amp;quot;courier new&amp;quot;, monospace; font-size: 14px;&quot;&gt;&amp;nbsp;&lt;/span&gt;&lt;span style=&quot;font-family: consolas, &amp;quot;courier new&amp;quot;, monospace; font-size: 14px;&quot;&gt;&amp;gt;&amp;gt;&lt;/span&gt;&lt;span style=&quot;font-family: consolas, &amp;quot;courier new&amp;quot;, monospace; font-size: 14px;&quot;&gt;&amp;nbsp;&lt;/span&gt;&lt;span style=&quot;font-family: consolas, &amp;quot;courier new&amp;quot;, monospace; font-size: 14px;&quot;&gt;n&lt;/span&gt;&lt;span style=&quot;font-family: consolas, &amp;quot;courier new&amp;quot;, monospace; font-size: 14px;&quot;&gt;;&lt;/span&gt;" style="shape=parallelogram;perimeter=parallelogramPerimeter;whiteSpace=wrap;html=1;fixedSize=1;labelBackgroundColor=#FFFFFF;" parent="1" vertex="1">
      <mxGeometry x="354" y="340" width="120" height="60" as="geometry" />
    </mxCell>
    <mxCell id="38" value="&lt;span style=&quot;font-family: consolas, &amp;quot;courier new&amp;quot;, monospace; font-size: 14px;&quot;&gt;cout&lt;/span&gt;&lt;span style=&quot;font-family: consolas, &amp;quot;courier new&amp;quot;, monospace; font-size: 14px;&quot;&gt;&amp;nbsp;&lt;/span&gt;&lt;span style=&quot;font-family: consolas, &amp;quot;courier new&amp;quot;, monospace; font-size: 14px;&quot;&gt;&amp;lt;&amp;lt;&lt;/span&gt;&lt;span style=&quot;font-family: consolas, &amp;quot;courier new&amp;quot;, monospace; font-size: 14px;&quot;&gt;&amp;nbsp;&lt;/span&gt;&lt;span style=&quot;font-family: consolas, &amp;quot;courier new&amp;quot;, monospace; font-size: 14px;&quot;&gt;&quot;Введите значение N&quot;&lt;/span&gt;&lt;span style=&quot;font-family: consolas, &amp;quot;courier new&amp;quot;, monospace; font-size: 14px;&quot;&gt;&amp;nbsp;&lt;/span&gt;&lt;span style=&quot;font-family: consolas, &amp;quot;courier new&amp;quot;, monospace; font-size: 14px;&quot;&gt;&amp;lt;&amp;lt;&lt;/span&gt;&lt;span style=&quot;font-family: consolas, &amp;quot;courier new&amp;quot;, monospace; font-size: 14px;&quot;&gt;&amp;nbsp;&lt;/span&gt;&lt;span style=&quot;font-family: consolas, &amp;quot;courier new&amp;quot;, monospace; font-size: 14px;&quot;&gt;endl&lt;/span&gt;&lt;span style=&quot;font-family: consolas, &amp;quot;courier new&amp;quot;, monospace; font-size: 14px;&quot;&gt;;&lt;/span&gt;" style="shape=parallelogram;perimeter=parallelogramPerimeter;whiteSpace=wrap;html=1;fixedSize=1;labelBackgroundColor=#ffffff;" parent="1" vertex="1">
      <mxGeometry x="254" y="250" width="320" height="60" as="geometry" />
    </mxCell>
    <mxCell id="40" value="" style="strokeWidth=2;html=1;shape=mxgraph.flowchart.annotation_2;align=left;labelPosition=right;pointerEvents=1;" parent="1" vertex="1">
      <mxGeometry x="489" y="1030" width="50" height="40" as="geometry" />
    </mxCell>
    <mxCell id="41" value="return 0;" style="text;html=1;align=center;verticalAlign=middle;resizable=0;points=[];autosize=1;strokeColor=none;" parent="1" vertex="1">
      <mxGeometry x="525" y="1040" width="60" height="20" as="geometry" />
    </mxCell>
    <mxCell id="42" value="" style="endArrow=none;dashed=1;html=1;entryX=0;entryY=0.5;entryDx=0;entryDy=0;entryPerimeter=0;" parent="1" target="40" edge="1">
      <mxGeometry width="50" height="50" relative="1" as="geometry">
        <mxPoint x="420" y="1050" as="sourcePoint" />
        <mxPoint x="440" y="1080" as="targetPoint" />
      </mxGeometry>
    </mxCell>
  </root>
</mxGraphModel>
